<?xml version="1.0" encoding="UTF-8" standalone="no"?>
<svg
   xmlns:dc="http://purl.org/dc/elements/1.1/"
   xmlns:cc="http://creativecommons.org/ns#"
   xmlns:rdf="http://www.w3.org/1999/02/22-rdf-syntax-ns#"
   xmlns:svg="http://www.w3.org/2000/svg"
   xmlns="http://www.w3.org/2000/svg"
   height="50"
   width="50"
   xml:space="preserve"
   viewBox="0 0 252.0626 477.175"
   y="0px"
   x="0px"
   id="Capa_1"
   fill="#fff"
   version="1.1"><metadata
   id="metadata41"><rdf:RDF><cc:Work
       rdf:about=""><dc:format>image/svg+xml</dc:format><dc:type
          /></cc:Work></rdf:RDF></metadata><defs
   id="defs39" />
<g
   transform="translate(-112.556)"
   id="g4">
	<path stroke-width="111"
   id="path2"
   d="m 360.731,229.075 -225.1,-225.1 c -5.3,-5.3 -13.8,-5.3 -19.1,0 -5.3,5.3 -5.3,13.8 0,19.1 l 215.5,215.5 -215.5,215.5 c -5.3,5.3 -5.3,13.8 0,19.1 2.6,2.6 6.1,4 9.5,4 3.4,0 6.9,-1.3 9.5,-4 l 225.1,-225.1 c 5.3,-5.2 5.3,-13.8 0.1,-19 z" />
</g>
<g 
   transform="translate(-112.556)"
   id="g6">
</g>
<g
   transform="translate(-112.556)"
   id="g8">
</g>
<g
   transform="translate(-112.556)"
   id="g10">
</g>
<g
   transform="translate(-112.556)"
   id="g12">
</g>
<g
   transform="translate(-112.556)"
   id="g14">
</g>
<g
   transform="translate(-112.556)"
   id="g16">
</g>
<g
   transform="translate(-112.556)"
   id="g18">
</g>
<g
   transform="translate(-112.556)"
   id="g20">
</g>
<g
   transform="translate(-112.556)"
   id="g22">
</g>
<g
   transform="translate(-112.556)"
   id="g24">
</g>
<g
   transform="translate(-112.556)"
   id="g26">
</g>
<g
   transform="translate(-112.556)"
   id="g28">
</g>
<g
   transform="translate(-112.556)"
   id="g30">
</g>
<g
   transform="translate(-112.556)"
   id="g32">
</g>
<g
   transform="translate(-112.556)"
   id="g34">
</g>
</svg>